<?xml version="1.0" encoding="UTF-8" standalone="no"?>
<svg width="345px" height="512px" viewBox="0 0 345 512" version="1.1" xmlns="http://www.w3.org/2000/svg" xmlns:xlink="http://www.w3.org/1999/xlink" xmlns:sketch="http://www.bohemiancoding.com/sketch/ns">
    <!-- Generator: Sketch 3.3.3 (12072) - http://www.bohemiancoding.com/sketch -->
    <title>404 Lamp</title>
    <desc>Created with Sketch.</desc>
    <defs></defs>
    <g id="Page-1" stroke="none" stroke-width="1" fill="none" fill-rule="evenodd" sketch:type="MSPage">
        <g id="404-Lamp" sketch:type="MSLayerGroup" fill="#FFFFFF">
            <path d="M155.362,512 C152.677,511.248 137.612,512 127.313,509.73 C107.325,505.324 94.404,490.779 87.504,471.446 C86.497,468.623 85.181,466.865 82.306,465.495 C60.425,455.066 50.672,429.517 59.39,406.709 C60.215,404.551 60.194,401.578 59.424,399.384 C55.529,388.294 55.154,377.325 58.96,366.128 C59.662,364.063 59.247,361.454 58.816,359.198 C57.358,351.561 55.269,344.029 54.133,336.351 C51.198,316.514 44.656,298.016 34.762,280.617 C23.995,261.681 12.778,242.933 6.911,221.689 C-21.825,117.632 44.307,19.403 143.759,2.18 C147.959,1.452 156.362,0 172.32,0 C197.862,0 208.248,3.504 217.978,6.064 C282.6,23.068 333.111,79.987 342.497,146.028 C348.187,186.064 341.798,223.887 321.913,259.285 C315.967,269.869 309.962,280.433 304.451,291.245 C296.518,306.812 292.188,323.468 290.047,340.81 C289.242,347.329 286.028,353.623 285.71,360.108 C285.4,366.442 288.273,372.909 288.121,379.279 C287.954,386.285 285.862,393.236 284.76,400.234 C284.472,402.063 284.216,404.179 284.837,405.828 C294.185,430.628 284.894,454.279 261.106,466.218 C259.687,466.93 258.29,468.549 257.764,470.054 C249.907,492.55 234.403,506.257 211.086,511.156 C210.479,511.283 189.935,511.712 189.362,512 L155.362,512 Z M172.252,353.998 C149.59,354 126.927,354.021 104.264,353.991 C92.794,353.976 88.021,350.115 86.895,338.665 C83.865,307.843 72.571,280.066 56.814,253.765 C46.681,236.851 38.564,219.133 34.747,199.516 C19.321,120.238 74.886,43.06 154.774,33.165 C231.411,23.673 301.911,78.259 311.162,154.445 C315.056,186.516 308.934,216.602 293.065,244.894 C284.371,260.395 276.151,276.23 268.861,292.429 C262.135,307.374 259.559,323.608 257.645,339.864 C256.498,349.596 251.671,353.926 241.74,353.966 C218.578,354.062 195.415,353.997 172.252,353.998 Z M172.332,396 C194.164,396 215.996,396.005 237.828,395.991 C239.825,395.99 241.845,396.025 243.817,395.761 C250.949,394.809 256.05,389.181 256.189,382.27 C256.331,375.148 251.227,369.268 243.867,368.242 C241.898,367.968 239.877,368.009 237.88,368.009 C194.216,367.997 150.552,367.994 106.888,368.015 C104.561,368.017 102.187,367.982 99.918,368.409 C93.109,369.693 88.405,375.519 88.505,382.225 C88.602,388.721 93.253,394.305 99.867,395.585 C101.971,395.992 104.176,395.981 106.336,395.984 C128.334,396.01 150.333,396 172.332,396 Z M172.36,410 C150.361,410 128.363,409.991 106.364,410.004 C94.976,410.01 88.354,415.311 88.504,424.249 C88.652,432.981 95.133,437.994 106.359,437.996 C150.19,438.005 194.021,438.003 237.852,437.991 C239.849,437.99 241.869,438.025 243.84,437.759 C250.969,436.798 256.063,431.157 256.189,424.247 C256.318,417.122 251.21,411.258 243.843,410.24 C241.874,409.968 239.854,410.01 237.856,410.009 C216.024,409.995 194.192,410 172.36,410 L172.36,410 Z M228.013,452.385 L116.643,452.385 C117.062,467.182 127.905,479.245 142.331,479.675 C162.31,480.271 182.331,480.243 202.312,479.686 C216.728,479.284 227.695,467.171 228.013,452.385 L228.013,452.385 Z" id="Path" sketch:type="MSShapeGroup"></path>
            <g id="404" transform="translate(94.000000, 133.000000)" sketch:type="MSShapeGroup">
                <path d="M78.32,229.197 L78.32,229.197 C74.761,229.197 71.875,226.312 71.875,222.752 L71.875,83.035 C71.875,79.475 74.761,76.59 78.32,76.59 C81.88,76.59 84.766,79.475 84.766,83.035 L84.766,222.752 C84.766,226.312 81.88,229.197 78.32,229.197" id="Fill-6"></path>
                <path d="M9.436,68.687 C3.911,68.687 0.855,67.041 0.855,62.221 C0.855,59.87 1.56,57.401 3.206,53.874 L26.13,6.028 C28.481,1.207 30.48,0.267 35.77,0.267 C41.53,0.267 43.764,3.677 43.764,7.673 L43.764,56.226 L63.468,56.226 C66.289,56.226 69.934,57.754 69.934,62.456 C69.934,67.159 66.289,68.687 63.468,68.687 L43.764,68.687 L43.764,78.562 C43.764,84.44 40.942,87.144 36.593,87.144 C32.243,87.144 29.422,84.44 29.422,78.562 L29.422,68.687 L9.436,68.687 Z M29.422,22.251 L29.186,22.251 L13.551,56.226 L29.422,56.226 L29.422,22.251 L29.422,22.251 Z" id="Fill-7"></path>
                <path d="M55.456,29.893 C55.338,16.255 57.454,0.973 79.085,0.973 C100.716,0.973 102.832,16.255 102.715,29.893 L102.715,58.342 C102.832,71.861 100.716,87.144 79.085,87.144 C57.454,87.144 55.338,71.861 55.456,58.342 L55.456,29.893 L55.456,29.893 Z M71.208,60.457 C71.208,71.273 72.737,75.858 79.085,75.858 C85.434,75.858 86.962,71.273 86.962,60.457 L86.962,27.659 C86.962,16.726 85.434,12.258 79.085,12.258 C72.737,12.258 71.208,16.726 71.208,27.659 L71.208,60.457 L71.208,60.457 Z" id="Fill-8"></path>
                <path d="M128.274,68.687 L108.29,68.687 C102.765,68.687 99.707,67.041 99.707,62.221 C99.707,59.87 100.413,57.401 102.059,53.874 L124.983,6.028 C127.334,1.207 129.333,0.267 134.623,0.267 C140.384,0.267 142.617,3.677 142.617,7.673 L142.617,56.226 L145.321,56.226 C148.142,56.226 151.786,57.754 151.786,62.456 C151.786,67.159 148.142,68.687 145.321,68.687 L142.617,68.687 L142.617,78.562 C142.617,84.44 139.796,87.144 135.445,87.144 C131.096,87.144 128.274,84.44 128.274,78.562 L128.274,68.687 L128.274,68.687 Z M128.274,22.251 L128.04,22.251 L112.404,56.226 L128.274,56.226 L128.274,22.251 L128.274,22.251 Z" id="Fill-9"></path>
            </g>
        </g>
    </g>
</svg>