<?xml version="1.0" encoding="UTF-8" standalone="no"?>
<svg width="25px" height="40px" viewBox="0 0 25 40" version="1.1" xmlns="http://www.w3.org/2000/svg" xmlns:xlink="http://www.w3.org/1999/xlink" xmlns:sketch="http://www.bohemiancoding.com/sketch/ns">
    <!-- Generator: Sketch 3.3.2 (12043) - http://www.bohemiancoding.com/sketch -->
    <title>buzzn_energy-icon</title>
    <desc>Created with Sketch.</desc>
    <defs></defs>
    <g id="Page-1" stroke="none" stroke-width="1" fill="none" fill-rule="evenodd" sketch:type="MSPage">
        <rect id="Rectangle-1" stroke="#979797" fill="#D8D8D8" sketch:type="MSShapeGroup" x="-17" y="-11" width="1024" height="800"></rect>
        <path d="M23.9525482,13.9371145 C23.8382109,13.6964044 23.6095363,13.5098541 23.374844,13.5098541 L14.9078664,13.5098541 L14.9078664,13.5158718 C14.5106947,13.5158718 14.1917539,13.1969309 14.1917539,12.7937415 C14.1917539,12.7455995 14.1977716,12.6974575 14.2098071,12.6432977 L16.5627483,0.902662855 C16.5868193,0.848503084 16.5928371,0.800361065 16.5928371,0.740183541 C16.5928371,0.33097638 16.2618607,0 15.8466358,0 C15.5698192,0 15.3291091,0.150443809 15.2027363,0.373100647 L0.128266583,21.9828494 C-0.0101417219,22.1934707 -0.0462482361,22.4642696 0.0680890589,22.7049797 C0.182426354,22.9517075 0.411100944,23.1322401 0.651811039,23.1322401 L9.10675312,23.1322401 C9.49188927,23.1322401 9.8168479,23.451181 9.8168479,23.8483526 C9.8168479,23.9025124 9.81083015,23.9626899 9.79277689,24.0228675 L5.91734436,39.0672484 L5.92336211,39.0672484 C5.90530886,39.1334437 5.8992911,39.1996389 5.8992911,39.2598165 C5.8992911,39.6690236 6.23026749,40 6.63345689,40 C6.898238,40 7.12691259,39.8676094 7.25930314,39.6630059 L23.8923707,14.6652625 C24.0428145,14.4546412 24.0668855,14.1778246 23.9525482,13.9371145" id="Path" fill="#FFFFFF" sketch:type="MSShapeGroup"></path>
    </g>
</svg>