<?xml version="1.0" encoding="UTF-8" standalone="no"?>
<svg width="345px" height="512px" viewBox="0 0 345 512" version="1.1" xmlns="http://www.w3.org/2000/svg" xmlns:xlink="http://www.w3.org/1999/xlink" xmlns:sketch="http://www.bohemiancoding.com/sketch/ns">
    <!-- Generator: Sketch 3.3.3 (12072) - http://www.bohemiancoding.com/sketch -->
    <title>Path + Path</title>
    <desc>Created with Sketch.</desc>
    <defs></defs>
    <g id="Page-1" stroke="none" stroke-width="1" fill="none" fill-rule="evenodd" sketch:type="MSPage">
        <g id="Path-+-Path" sketch:type="MSLayerGroup" fill="#FFFFFF">
            <path d="M178.643074,197.836652 L196.599616,197.836652 C201.426643,197.836652 203.357454,195.326597 203.357454,192.044219 C203.357454,188.76184 201.426643,186.251786 196.599616,186.251786 L178.643074,186.251786 L178.643074,170.226055 L212.080321,170.226055 C212.080321,170.226055 217.003905,164.522651 217.003905,165.592109 C217.003905,166.661567 211.770018,158.641189 218.719969,158.641189 L172.65756,158.641189 C167.927073,158.641189 165.706641,160.765081 165.706641,165.592109 L165.706641,222.744113 C165.706641,226.798816 168.699398,229.405411 172.174857,229.405411 C175.650317,229.405411 178.643074,226.798816 178.643074,222.744113 L178.643074,197.836652 Z" id="Path" sketch:type="MSShapeGroup"></path>
            <rect id="Rectangle-2" sketch:type="MSShapeGroup" x="152" y="187" width="42" height="11"></rect>
            <path d="M224.982537,197.836652 L242.939079,197.836652 C247.766106,197.836652 249.696917,195.326597 249.696917,192.044219 C249.696917,188.76184 247.766106,186.251786 242.939079,186.251786 L224.982537,186.251786 L224.982537,170.226055 L242.939079,170.226055 C247.766106,170.226055 249.696917,167.716001 249.696917,164.433622 C249.696917,161.151244 247.766106,158.641189 242.939079,158.641189 L218.997023,158.641189 C214.266536,158.641189 212.046104,160.765081 212.046104,165.592109 L212.046104,222.744113 C212.046104,226.798816 215.038861,229.405411 218.51432,229.405411 C221.98978,229.405411 224.982537,226.798816 224.982537,222.744113 L224.982537,197.836652 Z" id="Path" sketch:type="MSShapeGroup"></path>
            <path d="M110,200.153625 C110,226.316113 119.267893,229.791573 131.23892,229.791573 C143.209948,229.791573 152.477841,226.316113 152.477841,200.153625 L152.477841,185.479462 C152.477841,159.992757 142.051462,157 131.23892,157 C120.426379,157 110,159.992757 110,185.479462 L110,200.153625 Z M123.515677,185.479462 C123.515677,170.515677 126.122271,167.233298 131.23892,167.233298 C136.355569,167.233298 138.962164,170.515677 138.962164,185.479462 L138.962164,200.153625 C138.962164,217.144761 136.45211,219.558275 131.23892,219.558275 C126.025731,219.558275 123.515677,217.144761 123.515677,200.153625 L123.515677,185.479462 Z" id="Path" sketch:type="MSShapeGroup"></path>
            <path d="M155.362,512 C152.677,511.248 137.612,512 127.313,509.73 C107.325,505.324 94.404,490.779 87.504,471.446 C86.497,468.623 85.181,466.865 82.306,465.495 C60.425,455.066 50.672,429.517 59.39,406.709 C60.215,404.551 60.194,401.578 59.424,399.384 C55.529,388.294 55.154,377.325 58.96,366.128 C59.662,364.063 59.247,361.454 58.816,359.198 C57.358,351.561 55.269,344.029 54.133,336.351 C51.198,316.514 44.656,298.016 34.762,280.617 C23.995,261.681 12.778,242.933 6.911,221.689 C-21.825,117.632 44.307,19.403 143.759,2.18 C147.959,1.452 156.362,0 172.32,0 C197.862,0 208.248,3.504 217.978,6.064 C282.6,23.068 333.111,79.987 342.497,146.028 C348.187,186.064 341.798,223.887 321.913,259.285 C315.967,269.869 309.962,280.433 304.451,291.245 C296.518,306.812 292.188,323.468 290.047,340.81 C289.242,347.329 286.028,353.623 285.71,360.108 C285.4,366.442 288.273,372.909 288.121,379.279 C287.954,386.285 285.862,393.236 284.76,400.234 C284.472,402.063 284.216,404.179 284.837,405.828 C294.185,430.628 284.894,454.279 261.106,466.218 C259.687,466.93 258.29,468.549 257.764,470.054 C249.907,492.55 234.403,506.257 211.086,511.156 C210.479,511.283 189.935,511.712 189.362,512 L155.362,512 Z M172.252,353.998 C149.59,354 126.927,354.021 104.264,353.991 C92.794,353.976 88.021,350.115 86.895,338.665 C83.865,307.843 72.571,280.066 56.814,253.765 C46.681,236.851 38.564,219.133 34.747,199.516 C19.321,120.238 74.886,43.06 154.774,33.165 C231.411,23.673 301.911,78.259 311.162,154.445 C315.056,186.516 308.934,216.602 293.065,244.894 C284.371,260.395 276.151,276.23 268.861,292.429 C262.135,307.374 259.559,323.608 257.645,339.864 C256.498,349.596 251.671,353.926 241.74,353.966 C218.578,354.062 195.415,353.997 172.252,353.998 Z M172.332,396 C194.164,396 215.996,396.005 237.828,395.991 C239.825,395.99 241.845,396.025 243.817,395.761 C250.949,394.809 256.05,389.181 256.189,382.27 C256.331,375.148 251.227,369.268 243.867,368.242 C241.898,367.968 239.877,368.009 237.88,368.009 C194.216,367.997 150.552,367.994 106.888,368.015 C104.561,368.017 102.187,367.982 99.918,368.409 C93.109,369.693 88.405,375.519 88.505,382.225 C88.602,388.721 93.253,394.305 99.867,395.585 C101.971,395.992 104.176,395.981 106.336,395.984 C128.334,396.01 150.333,396 172.332,396 Z M172.36,410 C150.361,410 128.363,409.991 106.364,410.004 C94.976,410.01 88.354,415.311 88.504,424.249 C88.652,432.981 95.133,437.994 106.359,437.996 C150.19,438.005 194.021,438.003 237.852,437.991 C239.849,437.99 241.869,438.025 243.84,437.759 C250.969,436.798 256.063,431.157 256.189,424.247 C256.318,417.122 251.21,411.258 243.843,410.24 C241.874,409.968 239.854,410.01 237.856,410.009 C216.024,409.995 194.192,410 172.36,410 L172.36,410 Z M228.013,452.385 L116.643,452.385 C117.062,467.182 127.905,479.245 142.331,479.675 C162.31,480.271 182.331,480.243 202.312,479.686 C216.728,479.284 227.695,467.171 228.013,452.385 L228.013,452.385 Z" id="Path" sketch:type="MSShapeGroup"></path>
            <path d="M172.32,362.197 L172.32,362.197 C168.761,362.197 165.875,359.312 165.875,355.752 L165.875,216.035 C165.875,212.475 168.761,209.59 172.32,209.59 C175.88,209.59 178.766,212.475 178.766,216.035 L178.766,355.752 C178.766,359.312 175.88,362.197 172.32,362.197" id="Fill-6" sketch:type="MSShapeGroup"></path>
        </g>
    </g>
</svg>